<?xml version="1.0" encoding="UTF-8"?>
<svg width="220px" height="57px" viewBox="0 0 220 57" version="1.1" xmlns="http://www.w3.org/2000/svg" xmlns:xlink="http://www.w3.org/1999/xlink">
    <!-- Generator: sketchtool 59 (101010) - https://sketch.com -->
    <title>C8B60AB3-A68D-4342-84ED-77E78F9D50A3</title>
    <desc>Created with sketchtool.</desc>
    <defs>
        <polygon id="path-1" points="0 0.167957209 52.6016112 0.167957209 52.6016112 56.4836595 0 56.4836595"></polygon>
        <polygon id="path-3" points="0.143685581 0.0595330233 36.9424 0.0595330233 36.9424 37.3694865 0.143685581 37.3694865"></polygon>
    </defs>
    <g id="Page-1" stroke="none" stroke-width="1" fill="none" fill-rule="evenodd">
        <g id="常駐網頁" transform="translate(-250.000000, -60.000000)">
            <g id="aiaLogo" transform="translate(250.000000, 60.000000)">
                <g id="Group-3" transform="translate(0.000000, 0.036837)">
                    <mask id="mask-2" fill="white">
                        <use xlink:href="#path-1"></use>
                    </mask>
                    <g id="Clip-2"></g>
                    <path d="M34.84976,32.9428409 C34.2411274,31.7544316 32.0961786,32.6812967 31.0121414,31.6819851 C30.7125321,31.4059107 30.0789321,30.8367758 29.755174,29.849334 C29.4469693,28.9114177 28.9791367,28.1656688 28.1924577,27.5578549 C26.7969414,26.4732037 23.5002158,24.8120502 23.7238995,22.5909712 C23.8284763,21.5957526 25.0299833,21.3808688 25.5250344,20.6572223 C25.8213693,20.2252037 25.8600484,19.653613 26.2149135,19.2578177 C26.6080484,18.8137247 26.0536484,18.8020595 25.667267,18.783027 C24.8351553,18.7492595 24.215267,19.653613 23.5257972,20.0205526 C22.3959181,20.6226363 21.3783926,21.4657991 20.1068949,21.7441247 C19.7338158,21.8235293 17.8242158,22.416813 19.0699274,22.7268595 C19.9182065,22.9388781 20.8714716,22.8815758 21.5742437,23.4895944 C22.4804391,24.2637898 23.2153414,25.2600316 24.1244019,26.038934 C24.5877321,26.4394363 25.0359181,26.8137433 25.4106344,27.3026549 C25.8397879,27.859306 25.78576,28.4963851 26.1062437,29.0845526 C26.414653,29.645706 27.0241042,29.1305991 27.405574,29.4473991 C28.6461693,30.478227 26.916867,30.9853526 26.4729786,31.463827 C25.8886995,32.0947665 25.7783926,32.5073433 24.7052019,32.9428409 C24.2336856,33.1333712 21.1725135,33.5005153 20.7973879,33.7857991 C20.4238995,34.0719014 20.6193414,34.1543758 20.71696,34.2632502 C20.8151926,34.3721247 21.3446251,34.543213 21.5742437,34.5657247 C22.8604763,34.6866735 26.8227274,35.4354921 27.6325321,34.4208316 C28.1857042,33.7260409 29.0100391,33.6501153 29.9229879,33.8979479 C30.5602716,34.0725153 31.8352484,33.9431758 32.9362716,33.49192 C33.5735553,33.232627 35.34256,33.2031572 34.84976,32.9428409 L34.84976,32.9428409 Z M34.1201786,37.8933526 C34.114653,37.8956037 34.0587833,37.9287572 33.9885879,37.9678456 C33.9126623,38.006934 33.8596577,38.0386549 33.8557693,38.0441805 C33.8596577,38.0400874 33.8649786,38.0351758 33.8596577,38.0386549 C32.6297042,38.7209619 32.0016298,39.783306 32.126467,41.5119944 C32.3004205,43.91112 34.0587833,56.0256502 34.0587833,56.0256502 L37.4308205,54.9569619 C37.4308205,54.9569619 37.1187274,52.9931293 36.7319367,50.5858177 C37.8812577,50.2446642 39.0365135,49.7647572 40.1768298,49.1346363 C41.3040484,48.5075851 42.3258716,47.7814828 43.2189693,46.9927572 C45.0565321,48.5961991 46.5568298,49.9076037 46.5568298,49.9076037 L49.2541321,47.6175572 C49.2541321,47.6175572 39.9210158,39.6914177 37.9833786,38.2723665 C36.5852019,37.2515665 35.356067,37.2163665 34.1201786,37.8933526 L34.1201786,37.8933526 Z M38.6417414,46.392106 C37.7668577,46.8689433 36.9885693,47.1587293 36.213146,47.3273619 C35.7915647,44.663213 35.4115274,42.2501712 35.3605693,41.9519944 C35.2561972,41.240627 35.3100205,40.9561619 35.5627647,40.8143386 C35.8157135,40.6708781 36.0874902,40.7820037 36.6310437,41.2479944 C36.8645507,41.44712 38.7037507,43.0511758 40.7361414,44.8236595 C40.178467,45.3927944 39.5162158,45.9009433 38.6417414,46.392106 L38.6417414,46.392106 Z M24.4432484,56.4836595 L27.9233414,56.4836595 L27.9233414,39.2158084 L24.4432484,39.2158084 L24.4432484,56.4836595 Z M18.4001042,38.0441805 C18.3925321,38.0351758 18.3376856,38.006934 18.2660577,37.9678456 C18.1950437,37.9287572 18.1408112,37.8956037 18.134467,37.8933526 C18.1395833,37.8956037 18.1408112,37.8956037 18.1408112,37.8956037 C16.9084019,37.2122735 15.6790623,37.245427 14.2749507,38.2686828 C12.3330158,39.6840502 2.99048558,47.5946363 2.99048558,47.5946363 L5.68328558,49.8891851 C5.68328558,49.8891851 7.1833786,48.5824874 9.02114605,46.9800688 C9.91751814,47.7732967 10.9372949,48.500627 12.0737228,49.1305433 C13.2046251,49.7563665 14.3619274,50.2375014 15.5046995,50.5761991 C15.1172949,52.9849433 14.8025414,54.9534828 14.8025414,54.9534828 L18.1678251,56.0256502 C18.1678251,56.0256502 19.9478809,43.91112 20.1214251,41.5152688 C20.2483088,39.7908781 19.6300577,38.7275107 18.4001042,38.0441805 L18.4001042,38.0441805 Z M16.8854809,41.9505619 C16.8433228,42.2501712 16.4548949,44.6593247 16.0279926,47.3226549 C15.2462251,47.1527944 14.464867,46.8589153 13.588346,46.3781898 C12.7214437,45.8900967 12.0632856,45.3839944 11.5090902,44.8140409 C13.5468019,43.0429898 15.3892763,41.4411851 15.6168484,41.2434921 C16.1649042,40.7775014 16.4336112,40.6708781 16.6902437,40.8112688 C16.942374,40.9516595 16.9921042,41.2375572 16.8854809,41.9505619 L16.8854809,41.9505619 Z M6.20105302,41.9296874 C4.28715535,39.3406456 2.87813209,36.3658363 2.11232744,33.149334 C2.33171349,33.1972223 2.59755535,33.2655758 3.04389953,33.4112874 C4.50715535,33.8871014 7.25930419,34.7926828 9.24687628,33.8695014 C10.5101879,33.2841991 12.7026158,32.8057247 13.5468019,32.4672316 C14.3422809,32.1447014 16.0316763,32.884106 14.0402158,31.5780223 C14.0363274,31.5749526 14.0320298,31.5716781 14.0320298,31.5716781 C14.0046065,31.5551014 13.9743181,31.5362735 13.9282716,31.5186735 C13.8640112,31.4947293 13.7974995,31.4779479 13.7260763,31.4603479 C13.527974,31.4079572 11.9353786,31.7345805 11.581946,31.6815758 C11.4708205,31.6529247 11.3639926,31.613427 11.2633042,31.5581712 C10.3941507,31.0850177 14.0881042,28.2059851 14.2082344,27.4782456 C13.1501879,27.5897805 12.273053,28.26472 11.3242902,28.6809805 C10.2079181,29.1739851 8.99024372,29.1858549 7.79364837,29.1905619 C6.42801116,29.1944502 5.36505302,30.2565898 4.16416,30.7461153 C3.53772279,31.0011107 2.50648558,31.2415758 1.81230884,31.7004037 C1.76155535,31.4044781 1.7169414,31.1052781 1.67580651,30.8066921 C1.69688558,30.2848316 1.75562047,29.6612595 1.87984372,28.9486642 C2.15305302,27.3824688 2.78910884,26.1756409 4.19772279,24.2973526 C4.19772279,24.2973526 5.57277395,22.6425433 6.37275535,22.1118828 C6.68382512,21.9057991 7.02477395,21.5967758 7.35344372,21.8057247 C7.69971349,22.0259293 7.25541581,23.3792874 8.19087628,23.6070642 C8.75776,23.7431572 8.25820651,24.6780037 8.45262512,25.224627 C8.66116465,25.8072688 6.12226233,28.0234363 6.79229023,28.2960316 C7.16618791,28.450134 8.84801116,27.5981712 9.74110884,27.3118642 C10.5304484,27.0623944 11.3668577,27.0447944 12.2304856,26.2347851 C13.117853,25.40472 14.0039926,24.9448688 14.0039926,24.9448688 C14.7229321,24.3403293 15.4269321,23.714506 16.14096,23.098506 C16.835546,22.4941712 17.500253,21.8660967 18.1723274,21.2339293 C18.5947274,20.8332223 20.5041228,19.7845898 20.6731647,19.4184688 C21.5603274,17.4965898 23.8763647,16.3816502 25.5991181,15.1596781 C25.9169414,14.9359944 26.2591181,14.4718456 26.4529228,14.2039572 C26.6491833,13.9340223 26.854653,13.537613 26.9674158,13.4084781 C27.1908949,13.1555293 27.2436949,12.9664316 27.4898902,12.8505991 C27.5909879,12.802506 27.9755274,12.7998456 28.1460019,12.9830084 C28.7055181,13.582227 29.4690716,14.0952874 29.49936,14.7231572 C29.5417228,15.6932037 32.249667,16.5361619 32.8642344,17.2882549 C33.1171833,17.6009619 33.2696484,17.8909526 33.3744298,18.1844223 C32.900253,17.9867293 32.4373321,17.7659107 32.0235274,17.4640502 C31.7494995,17.2661526 31.1122158,17.3203851 30.7849786,17.2593991 C29.8542251,17.0848316 30.0676763,17.5348595 30.5866716,18.0671572 C31.1175367,18.6176688 31.7290344,19.0965526 32.2156949,19.6945433 C32.7743926,20.3842177 32.7234344,20.9451665 32.8720112,21.7664316 C33.036346,22.6525712 33.560867,23.4146921 33.9904298,24.1866363 C34.4292019,24.9716781 34.3958437,25.8072688 34.6393786,26.6436781 C34.8972391,27.4823386 35.6126995,28.1885898 36.2059833,28.8023386 C36.714746,29.3375014 37.8669321,30.6431758 38.497053,30.3613712 C39.1654437,30.0631944 39.9953042,30.8768874 40.2466158,30.6566828 C40.4971088,30.4350456 39.5749507,29.3632874 39.9294065,29.0305247 C40.2850902,28.7008316 41.8214065,29.2120502 42.1347274,30.2033805 C42.4936856,31.3432874 42.4597135,31.4447944 42.4005693,32.2750642 C42.3627088,32.8108409 42.1476205,33.2651665 41.7767926,33.6404967 C41.3241042,34.1060781 40.2693321,34.8632874 40.4774623,35.6337991 C41.4468949,35.1088688 42.4998251,35.0568874 43.5812019,35.098227 C44.634746,35.1358828 45.405667,34.6985433 46.1094623,33.944813 C46.4197135,33.61512 47.3128112,32.5689433 47.821574,33.0901898 C48.12896,33.4082177 47.2258344,34.6932223 48.2120484,34.4267665 C48.872867,34.2452409 49.462467,33.7401619 50.0588205,33.4125153 C50.2209042,33.3249247 50.36416,33.232627 50.4918623,33.1368502 C49.7145972,36.4098363 48.2728298,39.4317153 46.3106344,42.0532967 L47.0312112,42.644534 C50.5176484,38.1827293 52.6016112,32.5709898 52.6016112,26.4687014 C52.6016112,11.9446084 40.825574,0.167957209 26.3006623,0.167957209 C11.7747274,0.167957209 -8.18604651e-05,11.9446084 -8.18604651e-05,26.4687014 C-8.18604651e-05,32.5169619 2.04663442,38.0832688 5.4757693,42.5266549 L6.20105302,41.9296874 Z M26.3006623,3.07523163 C39.3402158,3.07523163 50.0246437,12.9699107 51.0575181,25.5512502 C50.6555833,26.0731107 50.0823553,26.3616688 49.4534623,26.4955107 C47.2409786,26.9631386 46.5605135,25.0488316 44.7237693,23.8401619 C42.8780205,22.6237153 41.18576,22.1560874 39.4767181,20.4429526 C38.7909321,19.7565526 38.6145228,18.5908595 37.933853,17.872534 C37.0243833,16.9116967 36.4679367,16.6395107 35.2357321,16.160013 C33.0694995,15.3217619 31.2129042,14.6973712 29.411974,13.2097619 C29.1086809,12.9547665 28.3917879,12.6226177 27.7250344,12.5010549 C27.4389321,12.4494828 27.3085693,12.490413 27.211974,12.6066549 C26.9469507,12.9414642 26.7001414,13.3587479 26.463974,13.7543386 C26.3968484,13.8646456 26.1750065,14.1798084 25.9932763,14.3453712 C25.6459833,14.6642177 25.2113042,15.0579665 24.8785414,15.2597526 C23.0714716,16.3544316 20.6833972,17.3011479 19.6552298,19.1542642 C19.4604019,19.5038084 17.4855181,20.4126642 17.029146,20.780627 C16.3120484,21.3624502 15.6062065,21.9440688 14.8692577,22.4941712 C14.1801972,23.0049805 13.223453,23.8047572 12.50656,24.3366456 C12.1244763,24.1956409 11.7370716,24.0693712 11.3777042,23.9981526 C10.5269693,23.8303386 9.81376,23.187734 9.08724837,22.7325898 C8.14871814,22.1468781 8.22116465,22.0793433 7.92564837,21.9129619 C7.66881116,21.7668409 7.54008558,21.6872316 7.43939721,21.6299293 C6.74542512,21.2279944 6.70469953,21.6356595 5.71971349,22.2393805 C4.89456,22.7487572 3.94702512,23.5896688 3.23995535,24.2556037 C2.6761414,24.7809433 2.09861581,25.3470084 1.51269953,25.9323107 C2.35831814,13.1708781 13.1297228,3.07523163 26.3006623,3.07523163 L26.3006623,3.07523163 Z" id="Fill-1" fill="#D31245" mask="url(#mask-2)"></path>
                </g>
                <path d="M75.8027702,28.6038679 L75.8027702,28.6447981 C74.815533,31.5181005 73.7904353,33.98824 72.721133,36.0601284 C71.6546958,38.1322214 70.5718865,39.897747 69.4782307,41.3511795 C68.3817098,42.8068633 67.6801656,43.6430679 67.3729842,43.8591795 C67.0658028,44.0759051 66.7455237,44.1829377 66.4189005,44.1829377 C66.0380447,44.1829377 65.7173563,44.0452074 65.4541749,43.7795702 C65.1938586,43.5137284 65.0618586,43.180147 65.0618586,42.7870121 C65.0618586,42.3157005 65.36904,41.7400167 65.9889284,41.0573005 C70.155626,36.364854 73.2505656,29.0013005 75.2704726,18.9688912 L65.7310679,18.8147888 C65.2186214,18.4584912 64.9662865,18.0055981 64.9662865,17.4557005 C64.9662865,17.0492633 65.1085191,16.6553098 65.3966679,16.2760912 C65.4863051,16.1698772 68.9571888,16.1205563 75.8027702,16.1205563 C76.1535423,12.8661935 76.4138586,11.0763144 76.5783981,10.7498958 C76.7402772,10.421226 77.1180633,10.2558679 77.7105284,10.2558679 C78.691626,10.2558679 79.1823795,10.7085563 79.1823795,11.6131144 C79.1823795,11.9921284 79.01784,13.4549749 78.691626,16.0018586 L100.978138,16.1551423 C101.474417,16.5366121 101.721021,17.0081284 101.721021,17.5698958 C101.721021,17.9407237 101.603552,18.3135981 101.367793,18.6999795 C100.556556,18.7711981 100.057412,18.8147888 99.87384,18.8147888 L78.3381935,18.8147888 C77.9710493,20.6548074 77.6612074,22.038454 77.4141935,22.9593842 L94.4047423,23.0801284 C95.6764447,23.5929842 96.3153656,24.4695051 96.3153656,25.7141935 C96.3153656,27.0421749 95.742547,28.927626 94.6022307,31.3801656 C93.4617098,33.8312726 91.4219516,36.3306772 88.4862307,38.8730586 C91.4219516,40.7231051 95.5452633,42.5402028 100.858007,44.3225098 C101.002491,44.7938214 101.074119,45.177133 101.074119,45.4822679 C101.074119,46.1645749 100.674231,46.6193098 99.87384,46.858547 C94.01304,45.1138958 89.3856726,43.0806865 85.9919423,40.7607609 C81.0573935,43.9494307 75.4732819,45.948054 69.2314214,46.7621563 C68.6150121,46.4607051 68.3078307,45.9922586 68.3078307,45.3641842 C68.3078307,45.0598679 68.3843702,44.7559609 68.5435888,44.4399795 C69.2125935,44.1225656 70.3529098,43.8180447 71.9671981,43.5170028 C76.2141191,42.6883702 80.0705656,41.1424353 83.5303981,38.8730586 C79.8595702,35.9240353 77.2797377,32.5022679 75.8027702,28.6038679 M93.401133,26.0715144 L77.9657284,25.9914958 C79.0645005,30.1495981 81.7509563,33.8617656 86.0302121,37.1431423 C88.609226,35.071254 90.4846493,32.9156633 91.6527981,30.6818958 C92.820333,28.4481284 93.401133,26.9097656 93.401133,26.0715144" id="Fill-4" fill="#D31245"></path>
                <path d="M140.123894,14.9961619 L140.123894,15.0379107 C139.493568,17.1867479 138.235168,20.5692223 136.349103,25.1830828 C135.992192,26.1285712 135.81701,26.7390456 135.81701,27.0112316 C135.81701,27.3157526 136.230815,27.8441619 137.056173,28.6064874 C139.66261,31.0193247 140.970536,33.8484223 140.970536,37.1021712 C140.970536,39.4513619 140.365382,41.2684595 139.150778,42.5622642 C137.938629,43.8538177 136.448154,44.4976502 134.676489,44.4976502 C133.404992,44.4976502 131.933345,44.1503572 130.260322,43.4557712 C128.588322,42.7628223 127.686424,42.2415758 127.558108,41.9018549 L127.558108,45.8356595 C127.558108,46.203213 127.363075,46.5267665 126.973624,46.7979293 C126.589699,47.0717526 126.288452,47.2145991 126.082982,47.2145991 C125.805885,47.2145991 125.51262,47.0717526 125.207689,46.7979293 C124.898666,46.5267665 124.745178,46.1098921 124.745178,45.5589712 L124.783243,37.301706 L124.665568,37.417334 C123.878685,37.575734 120.535299,37.6473619 114.635001,37.63672 C113.560992,40.2431572 112.113494,42.4636223 110.298852,44.303027 C108.48155,46.1336316 107.181606,47.0551758 106.394927,47.0551758 C105.948173,47.0551758 105.597401,46.8963665 105.342406,46.5730177 C105.087615,46.2492595 104.972396,46.0198456 104.997159,45.87352 L105.254406,44.676106 C107.993047,42.9822084 110.046313,40.6516409 111.411745,37.6721247 L106.022257,37.5348037 C105.536824,37.1021712 105.296154,36.6302456 105.296154,36.1200502 C105.296154,35.7267107 105.438387,35.33992 105.723466,34.9607014 C106.080173,34.8428223 108.32008,34.7885898 112.45342,34.8016874 C113.136136,32.7930363 113.565903,30.4493712 113.750294,27.7592316 L106.946052,27.6419665 C106.47208,27.2383944 106.238573,26.778134 106.238573,26.2683479 C106.238573,25.845334 106.405978,25.4454456 106.748564,25.0654084 C106.841885,24.9469153 109.160992,24.890227 113.711206,24.890227 L113.711206,17.551027 L106.296489,17.551027 C105.627485,17.1644409 105.296154,16.6659107 105.296154,16.06792 C105.296154,15.1580409 105.816378,14.7024874 106.863782,14.7024874 L113.750294,14.7024874 L113.911559,10.6677898 C114.289959,10.1058177 114.71768,9.82319442 115.203113,9.82319442 C115.608936,9.82319442 115.965029,10.0239572 116.263615,10.4242549 C116.568136,10.8245526 116.718964,11.3009805 116.718964,11.8496502 L116.718964,14.6232874 L124.281643,14.7794363 C124.486908,14.9664874 124.64142,15.1418735 124.745178,15.3121433 L124.745178,14.6232874 C124.717959,13.863827 124.939801,13.2253153 125.408657,12.7073433 C125.877717,12.186506 126.494331,11.9315107 127.258703,11.9315107 L136.620266,11.9315107 C137.711466,11.9315107 138.56875,12.2329619 139.189047,12.8334084 C139.813643,13.4365153 140.123894,14.1575014 140.123894,14.9961619 L140.123894,14.9961619 Z M124.745178,17.1615758 C124.745178,17.4249619 123.772061,17.551027 121.820303,17.551027 L116.718964,17.6118084 L116.718964,24.890227 L123.147466,24.890227 C123.51195,25.0265247 123.864564,25.3641991 124.21554,25.884627 C124.270592,27.0554363 123.645996,27.6419665 122.346461,27.6419665 L116.60088,27.6419665 C116.301885,30.9614084 115.940061,33.293613 115.520731,34.6459479 L124.276527,34.8016874 C124.432471,34.9334828 124.574703,35.08472 124.706499,35.2547851 L124.745178,17.1615758 Z M127.558108,16.1636967 L127.595354,40.2842921 C127.793457,39.7855572 128.105959,39.5364967 128.53634,39.5364967 C128.837792,39.5364967 129.651894,39.897706 130.975987,40.6195107 C132.30622,41.3429526 133.514889,41.7074363 134.610796,41.7074363 C135.73474,41.7074363 136.609215,41.27992 137.23688,40.4353247 C137.861885,39.585613 138.177661,38.4590084 138.177661,37.0495758 C138.177661,35.5015944 137.642908,33.9628223 136.573196,32.444106 C135.504303,30.9255944 134.370331,29.6622828 133.160638,28.6480316 C132.831354,28.2667665 132.669475,27.8114177 132.669475,27.2856688 C132.669475,26.8108781 132.807206,26.2298735 133.081438,25.5305805 L137.15154,15.1965153 C137.231354,15.0233805 137.108154,14.8455386 136.782145,14.6617619 L128.804638,14.7024874 C127.974982,14.7794363 127.558108,15.2701898 127.558108,16.1636967 L127.558108,16.1636967 Z" id="Fill-6" fill="#D31245"></path>
                <path d="M162.810396,24.9279442 C162.12768,27.2738605 161.201224,29.5450791 160.025299,31.7340279 C158.852033,33.9252279 157.481689,35.9975256 155.915903,37.9515349 C154.350936,39.9010419 152.379531,41.9287256 150.002917,44.0241488 C147.63142,46.1234605 146.17942,47.1735256 145.639345,47.1735256 C145.13181,47.1735256 144.71821,47.0087814 144.410415,46.679907 C144.104052,46.3534884 143.950564,46.0708651 143.950564,45.8357209 L144.244238,44.7938419 C146.905317,42.9685581 149.31795,40.9451721 151.472108,38.7161116 C153.627085,36.4874605 155.464238,34.0510884 156.976201,31.4108837 C158.493075,28.7684279 159.536796,26.175293 160.115959,23.6306605 C160.694508,21.0874605 160.981633,17.920893 160.981633,14.1325953 C160.981633,12.2035535 161.116089,11.0599628 161.385206,10.6868837 C161.653094,10.3195349 161.965801,10.1418977 162.320257,10.1418977 C163.342285,10.1418977 163.851866,11.4052093 163.851866,13.9330605 L163.791494,17.2170977 C163.791494,18.634307 163.981615,19.892093 164.353466,20.9863628 C164.72941,22.0828837 165.367922,23.7276651 166.273094,25.9237767 C167.177447,28.1215256 168.306099,30.3260279 169.66314,32.5483349 C171.020387,34.7722791 172.459699,36.7260837 173.994173,38.4097488 C175.519029,40.0981209 176.963866,41.4328558 178.328685,42.425414 C179.690638,43.4126512 180.518861,44.0894326 180.817243,44.4483907 C181.11194,44.810214 181.25888,45.2076465 181.25888,45.6380279 C181.25888,46.5153674 180.865131,46.9565953 180.07968,46.9565953 C178.740033,46.9565953 176.111699,44.8296558 172.180759,40.572093 C168.254936,36.3208744 165.132573,31.1045209 162.810396,24.9279442" id="Fill-8" fill="#D31245"></path>
                <g id="Group-12" transform="translate(182.958140, 9.450791)">
                    <mask id="mask-4" fill="white">
                        <use xlink:href="#path-3"></use>
                    </mask>
                    <g id="Clip-11"></g>
                    <path d="M32.0017321,28.0461935 C31.963667,28.364426 31.9444298,28.7530586 31.9444298,29.2161842 L32.0017321,31.8801284 C32.0017321,35.5372447 30.8292856,37.3694865 28.4827553,37.3694865 C27.7615647,37.3694865 26.8349042,37.2100633 25.6999088,36.8867144 C24.5677786,36.5652074 23.7401693,36.3046865 23.2221972,36.1082214 C22.7066809,35.9133935 22.4463647,35.4993842 22.4463647,34.8717191 C22.4463647,34.4253749 22.60456,34.0303981 22.9360949,33.693133 C23.2221972,33.6380819 23.5101414,33.6133191 23.7813042,33.6133191 C24.3348856,33.6133191 25.0528019,33.7668074 25.9446716,34.0848353 C26.83736,34.4002028 27.5401321,34.5565563 28.0495088,34.5565563 C28.4690437,34.5565563 28.7760205,34.441133 28.9681879,34.2025098 C29.1536019,33.9638865 29.2557228,33.1772074 29.2694344,31.8424726 L29.3072949,28.0075144 L18.3912019,28.0461935 C17.9209135,27.7721656 17.684746,27.3495609 17.684746,26.7896353 C17.684746,26.4996447 17.7445042,26.1957377 17.8634065,25.8854865 L18.6306437,25.4309563 L29.1945321,25.4309563 L29.2307553,24.0743237 L0.910308837,24.1115702 C0.397862326,23.7865842 0.143685581,23.344333 0.143685581,22.7942307 C0.143685581,22.5337098 0.198532093,22.3055237 0.307611163,22.10824 C0.423443721,21.9107516 0.581843721,21.7605377 0.793043721,21.6557563 L1.1053414,21.4967423 L35.5823088,21.4967423 C36.1719088,21.4967423 36.4680391,21.8778028 36.4680391,22.6397191 C36.4680391,23.648854 35.6097321,24.1531144 33.8935274,24.1531144 L32.042867,24.1115702 L32.0017321,25.4309563 L36.1909414,25.4309563 C36.6888577,25.7070307 36.9424205,26.0854307 36.9424205,26.5567423 C36.9424205,26.9685005 36.7551647,27.3990865 36.3914995,27.8454307 C35.7609693,27.9798865 34.2938251,28.0461935 32.0017321,28.0461935 L32.0017321,28.0461935 Z M32.0017321,17.3875516 L32.0017321,17.3464167 C31.5304205,16.9792726 31.2952763,16.5274028 31.2952763,15.9895795 C31.2952763,15.5841656 31.602253,15.1314772 32.218867,14.6325377 C32.8356856,14.1340074 33.1616949,13.6678121 33.2030344,13.23784 L32.9693228,13.0759609 L1.38202977,13.1195516 C0.761936744,12.6971516 0.455778605,12.2117191 0.455778605,11.6638679 C0.455778605,11.3210772 0.57631814,11.0229005 0.812076279,10.75624 C1.05029023,10.4957191 1.30835535,10.3645377 1.59896,10.3645377 L34.2066437,10.403626 C35.5960205,10.9537284 36.2924484,11.8529656 36.2924484,13.097654 C36.2924484,14.109654 35.8698437,15.0823609 35.0227926,16.0303051 C34.1767647,16.9735423 33.3286902,17.4485377 32.4773414,17.4485377 C32.3033879,17.4485377 32.1472391,17.4295051 32.0017321,17.3875516 L32.0017321,17.3875516 Z M19.709974,5.54541209 L19.709974,6.63088186 L31.9251926,6.74671442 C32.3975274,7.12675163 32.635946,7.60993302 32.635946,8.18009116 C32.635946,8.59410047 32.4908484,8.96636093 32.1998344,9.31201674 C31.3992391,9.47635163 30.9549414,9.55575628 30.8650995,9.55575628 L5.29127628,9.55575628 C4.67957395,9.1642586 4.36952744,8.79138419 4.36952744,8.43754233 C4.36952744,7.30827721 4.89732279,6.74671442 5.94411349,6.74671442 L16.7413042,6.74671442 L16.7413042,5.70156093 L2.28392744,5.54541209 C1.7745507,5.21940279 1.51955535,4.77858419 1.51955535,4.22950512 C1.51955535,3.78295628 1.6865507,3.38777488 2.02872744,3.04866791 C3.30063442,2.90070512 8.20530419,2.83439814 16.7413042,2.83439814 C16.7413042,1.88809116 16.7550158,1.32939349 16.7826437,1.15932837 C16.8098623,0.992537674 16.9529135,0.764556279 17.2021786,0.481933023 C17.4496019,0.200537674 17.8001693,0.0595330233 18.2602251,0.0595330233 C18.7292856,0.0595330233 19.0943833,0.186007442 19.3561321,0.441002791 C19.6203367,0.699272558 19.7378065,1.46917023 19.709974,2.75478884 L33.970067,2.96557953 C34.4143647,3.32269581 34.6394809,3.74407256 34.6394809,4.2270493 C34.6394809,4.63553302 34.4696205,5.01679814 34.1266251,5.37330047 C32.1605414,5.51819349 29.7601879,5.58716093 26.9286344,5.58716093 L19.709974,5.54541209 Z M32.7704019,20.3955144 L3.20833674,20.3955144 C2.48632744,20.0905842 2.1273693,19.6331888 2.1273693,19.0161656 C2.1273693,18.1109935 2.6733786,17.6597377 3.75884837,17.6597377 L16.7413042,17.6597377 L16.8211181,16.6972633 L7.10612279,16.6587888 C6.35812279,16.3434214 5.98156465,15.8721098 5.98156465,15.2520167 C5.98156465,14.8691144 6.12522977,14.5338958 6.40682977,14.2408353 C6.68638326,13.950026 6.88059721,13.8071795 6.98578791,13.8071795 L27.695667,13.8071795 C28.2742158,14.0331144 28.5611367,14.4571516 28.5611367,15.0717191 C28.5611367,16.1295609 27.9780856,16.6587888 26.8099367,16.6587888 L19.6336391,16.6587888 L19.709974,17.6597377 L33.8495274,17.6597377 C34.3104019,18.1257284 34.5402251,18.6132074 34.5402251,19.1176726 C34.5402251,19.5013935 34.3896019,19.8626028 34.0877414,20.1941377 C33.4336763,20.3290028 32.9944949,20.3955144 32.7704019,20.3955144 L32.7704019,20.3955144 Z M15.0883367,35.4609098 L15.1272205,35.4609098 L9.46329488,35.5794028 C8.58636465,35.5794028 7.62982512,35.5489098 6.60186233,35.4909935 C5.57103442,35.4312353 4.91553674,35.2967795 4.62493209,35.0859888 C4.33760186,34.8799051 4.08874605,34.5919609 3.8689507,34.2413935 C3.65263442,33.8842772 3.50978791,33.5148819 3.43529488,33.1194958 C3.36346233,32.7247237 3.32908093,32.2834958 3.32908093,31.7814865 L3.36653209,29.7781563 L3.32908093,27.6154028 C3.32908093,26.9856912 3.59451349,26.4034586 4.1241507,25.8719795 C4.65542512,25.3407051 5.00640186,25.0742493 5.17687628,25.0742493 L9.56173209,25.1573377 C12.5770623,25.1949935 14.2218437,25.1978586 14.499146,25.1675702 C14.773174,25.1319609 15.1491181,25.3018214 15.6312763,25.6779702 C16.1079088,26.0473656 16.4484484,26.5325935 16.6424577,27.1217842 C16.8395367,27.709133 16.9383833,28.4825098 16.9383833,29.4222679 C16.9383833,31.5080726 16.8180484,32.9971144 16.5747181,33.8842772 C16.3277042,34.7781935 15.83736,35.3021005 15.0883367,35.4609098 L15.0883367,35.4609098 Z M13.9099553,27.8098214 L6.43711814,27.7310307 L6.25907163,27.8098214 L6.13832744,32.5307144 L6.30020651,32.7247237 L13.4758902,32.651254 L13.9474065,32.651254 C14.0413414,31.9930958 14.085546,31.2532819 14.085546,30.428333 C14.085546,29.8221563 14.0605786,28.9759237 14.0085972,27.8896353 L13.9099553,27.8098214 Z M24.5098623,33.1772074 L24.5098623,33.1194958 C22.0188484,31.6640167 20.5191647,30.7021563 20.0067181,30.2304353 C19.9264949,29.5866028 20.0398716,29.1038307 20.3405042,28.7835516 C20.64216,28.4620447 20.9157786,28.3003702 21.1664763,28.3003702 C21.4296577,28.3003702 22.1041879,28.5754214 23.1921135,29.1157005 C24.2829042,29.663347 25.2040391,30.4056167 25.9686158,31.3525377 C25.9686158,32.2532074 25.4807274,32.8622493 24.5098623,33.1772074 L24.5098623,33.1772074 Z" id="Fill-10" fill="#D31245" mask="url(#mask-4)"></path>
                </g>
            </g>
        </g>
    </g>
</svg>